G04 --- HEADER BEGIN --- *
G04 #@! TF.GenerationSoftware,LibrePCB,LibrePCB,0.1.6*
G04 #@! TF.CreationDate,2022-07-20T10:00:17*
G04 #@! TF.ProjectId,Sensor de pulso (Sensor_Pulso),780e052b-a1ef-4dc1-bbf9-e3d6d5305104,v1*
G04 #@! TF.Part,Single*
G04 #@! TF.SameCoordinates*
G04 #@! TF.FileFunction,Legend,Top*
G04 #@! TF.FilePolarity,Positive*
%FSLAX66Y66*%
%MOMM*%
G01*
G75*
G04 --- HEADER END --- *
G04 --- APERTURE LIST BEGIN --- *
%ADD10C,0.2*%
%ADD11C,0.1524*%
%ADD12C,0.0*%
%ADD13C,0.01*%
%ADD14C,0.25*%
%ADD15C,0.9*%
%AMROTATEDOCTAGON16*4,1,8,0.9128,0.378094,0.378094,0.9128,-0.378094,0.9128,-0.9128,0.378094,-0.9128,-0.378094,-0.378094,-0.9128,0.378094,-0.9128,0.9128,-0.378094,0.9128,0.378094,0.0*%
%ADD16ROTATEDOCTAGON16*%
%ADD17O,1.2X2.2*%
%ADD18C,2.0*%
%ADD19O,2.39X1.787*%
%ADD20R,2.39X1.787*%
%ADD21O,1.47X2.74*%
%ADD22R,1.47X2.74*%
%ADD23C,1.7*%
%ADD24R,0.95X0.95*%
%ADD25C,0.95*%
%ADD26O,1.7X1.0*%
%ADD27C,2.2*%
G04 --- APERTURE LIST END --- *
G04 --- BOARD BEGIN --- *
D10*
G04 #@! TO.C,C1*
X34401250Y28710000D02*
X36401250Y28710000D01*
G03*
X36401250Y29710000I-500000J500000D01*
G01*
X34401250Y29710000D01*
G03*
X34401250Y28710000I500000J-500000D01*
G01*
D11*
G04 #@! TO.C,R1*
X16605250Y14144625D02*
X16605250Y13890625D01*
X16478250Y11477625D02*
X16605250Y11350625D01*
X16605250Y11096625D02*
X16605250Y11350625D01*
X16478250Y13763625D02*
X16605250Y13890625D01*
X14827250Y11096625D02*
X14827250Y11350625D01*
X14954250Y13763625D02*
X14827250Y13890625D01*
D12*
X15970250Y10588625D02*
X15970250Y10842625D01*
X15462250Y10842625D01*
X15462250Y10588625D01*
X15970250Y10588625D01*
D13*
G36*
X15970250Y10588625D02*
X15970250Y10842625D01*
X15462250Y10842625D01*
X15462250Y10588625D01*
X15970250Y10588625D01*
G37*
D11*
X14827250Y14144625D02*
X14827250Y13890625D01*
X16605250Y14144625D02*
X16351250Y14398625D01*
D12*
X15970250Y14398625D02*
X15970250Y14652625D01*
X15462250Y14652625D01*
X15462250Y14398625D01*
X15970250Y14398625D01*
D13*
G36*
X15970250Y14398625D02*
X15970250Y14652625D01*
X15462250Y14652625D01*
X15462250Y14398625D01*
X15970250Y14398625D01*
G37*
D11*
X14954250Y13763625D02*
X14954250Y11477625D01*
X16351250Y10842625D02*
X16605250Y11096625D01*
X16478250Y13763625D02*
X16478250Y11477625D01*
X14827250Y14144625D02*
X15081250Y14398625D01*
X15081250Y10842625D02*
X14827250Y11096625D01*
X14954250Y11477625D02*
X14827250Y11350625D01*
G04 #@! TO.C,R5*
X28717875Y38798500D02*
X28717875Y39052500D01*
X28844875Y41465500D02*
X28717875Y41592500D01*
X28717875Y41846500D02*
X28717875Y41592500D01*
X28844875Y39179500D02*
X28717875Y39052500D01*
X30495875Y41846500D02*
X30495875Y41592500D01*
X30368875Y39179500D02*
X30495875Y39052500D01*
D12*
X29352875Y42354500D02*
X29352875Y42100500D01*
X29860875Y42100500D01*
X29860875Y42354500D01*
X29352875Y42354500D01*
D13*
G36*
X29352875Y42354500D02*
X29352875Y42100500D01*
X29860875Y42100500D01*
X29860875Y42354500D01*
X29352875Y42354500D01*
G37*
D11*
X30495875Y38798500D02*
X30495875Y39052500D01*
X28717875Y38798500D02*
X28971875Y38544500D01*
D12*
X29352875Y38544500D02*
X29352875Y38290500D01*
X29860875Y38290500D01*
X29860875Y38544500D01*
X29352875Y38544500D01*
D13*
G36*
X29352875Y38544500D02*
X29352875Y38290500D01*
X29860875Y38290500D01*
X29860875Y38544500D01*
X29352875Y38544500D01*
G37*
D11*
X30368875Y39179500D02*
X30368875Y41465500D01*
X28971875Y42100500D02*
X28717875Y41846500D01*
X28844875Y39179500D02*
X28844875Y41465500D01*
X30495875Y38798500D02*
X30241875Y38544500D01*
X30241875Y42100500D02*
X30495875Y41846500D01*
X30368875Y41465500D02*
X30495875Y41592500D01*
D10*
G04 #@! TO.C,?2*
X33726875Y15462500D02*
X40726875Y15462500D01*
X38496875Y15462500D02*
X38496875Y9912500D01*
X33726875Y19462500D02*
X40726875Y19462500D01*
X40726875Y15462500D02*
X40726875Y19462500D01*
X35956875Y15462500D02*
X35956875Y9912500D01*
X34686875Y15462500D02*
X34686875Y9912500D01*
X33726875Y15462500D02*
X33726875Y19462500D01*
X39766875Y15462500D02*
X39766875Y9912500D01*
D11*
G04 #@! TO.C,R8*
X60388500Y12239625D02*
X60642500Y12239625D01*
X63055500Y12112625D02*
X63182500Y12239625D01*
X63436500Y12239625D02*
X63182500Y12239625D01*
X60769500Y12112625D02*
X60642500Y12239625D01*
X63436500Y10461625D02*
X63182500Y10461625D01*
X60769500Y10588625D02*
X60642500Y10461625D01*
D12*
X63944500Y11604625D02*
X63690500Y11604625D01*
X63690500Y11096625D01*
X63944500Y11096625D01*
X63944500Y11604625D01*
D13*
G36*
X63944500Y11604625D02*
X63690500Y11604625D01*
X63690500Y11096625D01*
X63944500Y11096625D01*
X63944500Y11604625D01*
G37*
D11*
X60388500Y10461625D02*
X60642500Y10461625D01*
X60388500Y12239625D02*
X60134500Y11985625D01*
D12*
X60134500Y11604625D02*
X59880500Y11604625D01*
X59880500Y11096625D01*
X60134500Y11096625D01*
X60134500Y11604625D01*
D13*
G36*
X60134500Y11604625D02*
X59880500Y11604625D01*
X59880500Y11096625D01*
X60134500Y11096625D01*
X60134500Y11604625D01*
G37*
D11*
X60769500Y10588625D02*
X63055500Y10588625D01*
X63690500Y11985625D02*
X63436500Y12239625D01*
X60769500Y12112625D02*
X63055500Y12112625D01*
X60388500Y10461625D02*
X60134500Y10715625D01*
X63690500Y10715625D02*
X63436500Y10461625D01*
X63055500Y10588625D02*
X63182500Y10461625D01*
G04 #@! TO.C,R3*
X47402750Y15732125D02*
X47402750Y15478125D01*
X47275750Y13065125D02*
X47402750Y12938125D01*
X47402750Y12684125D02*
X47402750Y12938125D01*
X47275750Y15351125D02*
X47402750Y15478125D01*
X45624750Y12684125D02*
X45624750Y12938125D01*
X45751750Y15351125D02*
X45624750Y15478125D01*
D12*
X46767750Y12176125D02*
X46767750Y12430125D01*
X46259750Y12430125D01*
X46259750Y12176125D01*
X46767750Y12176125D01*
D13*
G36*
X46767750Y12176125D02*
X46767750Y12430125D01*
X46259750Y12430125D01*
X46259750Y12176125D01*
X46767750Y12176125D01*
G37*
D11*
X45624750Y15732125D02*
X45624750Y15478125D01*
X47402750Y15732125D02*
X47148750Y15986125D01*
D12*
X46767750Y15986125D02*
X46767750Y16240125D01*
X46259750Y16240125D01*
X46259750Y15986125D01*
X46767750Y15986125D01*
D13*
G36*
X46767750Y15986125D02*
X46767750Y16240125D01*
X46259750Y16240125D01*
X46259750Y15986125D01*
X46767750Y15986125D01*
G37*
D11*
X45751750Y15351125D02*
X45751750Y13065125D01*
X47148750Y12430125D02*
X47402750Y12684125D01*
X47275750Y15351125D02*
X47275750Y13065125D01*
X45624750Y15732125D02*
X45878750Y15986125D01*
X45878750Y12430125D02*
X45624750Y12684125D01*
X45751750Y13065125D02*
X45624750Y12938125D01*
D10*
G04 #@! TO.C,?1*
X61481875Y39928125D02*
X61481875Y32938125D01*
X54881875Y39928125D02*
X61481875Y39928125D01*
X54851875Y39928125D02*
X54881875Y32938125D01*
X61481875Y32938125D02*
X54881875Y32938125D01*
D11*
G04 #@! TO.C,R9*
X56848375Y17002125D02*
X56848375Y16748125D01*
X56721375Y14335125D02*
X56848375Y14208125D01*
X56848375Y13954125D02*
X56848375Y14208125D01*
X56721375Y16621125D02*
X56848375Y16748125D01*
X55070375Y13954125D02*
X55070375Y14208125D01*
X55197375Y16621125D02*
X55070375Y16748125D01*
D12*
X56213375Y13446125D02*
X56213375Y13700125D01*
X55705375Y13700125D01*
X55705375Y13446125D01*
X56213375Y13446125D01*
D13*
G36*
X56213375Y13446125D02*
X56213375Y13700125D01*
X55705375Y13700125D01*
X55705375Y13446125D01*
X56213375Y13446125D01*
G37*
D11*
X55070375Y17002125D02*
X55070375Y16748125D01*
X56848375Y17002125D02*
X56594375Y17256125D01*
D12*
X56213375Y17256125D02*
X56213375Y17510125D01*
X55705375Y17510125D01*
X55705375Y17256125D01*
X56213375Y17256125D01*
D13*
G36*
X56213375Y17256125D02*
X56213375Y17510125D01*
X55705375Y17510125D01*
X55705375Y17256125D01*
X56213375Y17256125D01*
G37*
D11*
X55197375Y16621125D02*
X55197375Y14335125D01*
X56594375Y13700125D02*
X56848375Y13954125D01*
X56721375Y16621125D02*
X56721375Y14335125D01*
X55070375Y17002125D02*
X55324375Y17256125D01*
X55324375Y13700125D02*
X55070375Y13954125D01*
X55197375Y14335125D02*
X55070375Y14208125D01*
G04 #@! TO.C,R10*
X53721000Y29940250D02*
X53975000Y29940250D01*
X56388000Y29813250D02*
X56515000Y29940250D01*
X56769000Y29940250D02*
X56515000Y29940250D01*
X54102000Y29813250D02*
X53975000Y29940250D01*
X56769000Y28162250D02*
X56515000Y28162250D01*
X54102000Y28289250D02*
X53975000Y28162250D01*
D12*
X57277000Y29305250D02*
X57023000Y29305250D01*
X57023000Y28797250D01*
X57277000Y28797250D01*
X57277000Y29305250D01*
D13*
G36*
X57277000Y29305250D02*
X57023000Y29305250D01*
X57023000Y28797250D01*
X57277000Y28797250D01*
X57277000Y29305250D01*
G37*
D11*
X53721000Y28162250D02*
X53975000Y28162250D01*
X53721000Y29940250D02*
X53467000Y29686250D01*
D12*
X53467000Y29305250D02*
X53213000Y29305250D01*
X53213000Y28797250D01*
X53467000Y28797250D01*
X53467000Y29305250D01*
D13*
G36*
X53467000Y29305250D02*
X53213000Y29305250D01*
X53213000Y28797250D01*
X53467000Y28797250D01*
X53467000Y29305250D01*
G37*
D11*
X54102000Y28289250D02*
X56388000Y28289250D01*
X57023000Y29686250D02*
X56769000Y29940250D01*
X54102000Y29813250D02*
X56388000Y29813250D01*
X53721000Y28162250D02*
X53467000Y28416250D01*
X57023000Y28416250D02*
X56769000Y28162250D01*
X56388000Y28289250D02*
X56515000Y28162250D01*
D14*
G04 #@! TO.C,J2*
X9094375Y16523750D02*
X9094375Y14398750D01*
X8824375Y14128750D01*
X9094375Y13858750D01*
X9094375Y11858750D01*
X8824375Y11588750D01*
X9094375Y11318750D01*
X9094375Y9193750D01*
X8824375Y8923750D01*
X6574375Y8923750D01*
X6304375Y9193750D01*
X6304375Y11318750D01*
X6574375Y11588750D01*
X6304375Y11858750D01*
X6304375Y13858750D01*
X6574375Y14128750D01*
X6304375Y14398750D01*
X6304375Y16523750D01*
X6574375Y16793750D01*
X8824375Y16793750D01*
X9094375Y16523750D01*
D10*
G04 #@! TO.C,C2*
X54895625Y22486875D02*
X52895625Y22486875D01*
G03*
X52895625Y21486875I500000J-500000D01*
G01*
X54895625Y21486875D01*
G03*
X54895625Y22486875I-500000J500000D01*
G01*
D14*
G04 #@! TO.C,U1*
X34099000Y34168125D02*
X34099000Y35678125D01*
G03*
X34099000Y37188125I0J755000D01*
G01*
X34099000Y38698125D01*
X50991000Y38698125D01*
X50991000Y34168125D01*
X34099000Y34168125D01*
D13*
G36*
X35599000Y35168125D02*
G02*
X34599000Y35168125I-500000J0D01*
G01*
G02*
X35599000Y35168125I500000J0D01*
G01*
G37*
D10*
G04 #@! TO.C,LED1*
X65285625Y28971875D02*
G02*
X60285625Y28971875I-2500000J0D01*
G01*
G02*
X65285625Y28971875I2500000J0D01*
G01*
D11*
G04 #@! TO.C,R6*
X35099625Y24034750D02*
X34845625Y24034750D01*
X32432625Y24161750D02*
X32305625Y24034750D01*
X32051625Y24034750D02*
X32305625Y24034750D01*
X34718625Y24161750D02*
X34845625Y24034750D01*
X32051625Y25812750D02*
X32305625Y25812750D01*
X34718625Y25685750D02*
X34845625Y25812750D01*
D12*
X31543625Y24669750D02*
X31797625Y24669750D01*
X31797625Y25177750D01*
X31543625Y25177750D01*
X31543625Y24669750D01*
D13*
G36*
X31543625Y24669750D02*
X31797625Y24669750D01*
X31797625Y25177750D01*
X31543625Y25177750D01*
X31543625Y24669750D01*
G37*
D11*
X35099625Y25812750D02*
X34845625Y25812750D01*
X35099625Y24034750D02*
X35353625Y24288750D01*
D12*
X35353625Y24669750D02*
X35607625Y24669750D01*
X35607625Y25177750D01*
X35353625Y25177750D01*
X35353625Y24669750D01*
D13*
G36*
X35353625Y24669750D02*
X35607625Y24669750D01*
X35607625Y25177750D01*
X35353625Y25177750D01*
X35353625Y24669750D01*
G37*
D11*
X34718625Y25685750D02*
X32432625Y25685750D01*
X31797625Y24288750D02*
X32051625Y24034750D01*
X34718625Y24161750D02*
X32432625Y24161750D01*
X35099625Y25812750D02*
X35353625Y25558750D01*
X31797625Y25558750D02*
X32051625Y25812750D01*
X32432625Y25685750D02*
X32305625Y25812750D01*
D12*
G04 #@! TO.C,C3*
X40401875Y23544375D02*
X40401875Y24269375D01*
X39901875Y24269375D01*
G02*
X39901875Y25419375I0J575000D01*
G01*
X40401875Y25419375D01*
X40401875Y26144375D01*
G03*
X40401875Y23544375I0J-1300000D01*
G01*
D13*
G36*
X40401875Y23544375D02*
X40401875Y24269375D01*
X39901875Y24269375D01*
G02*
X39901875Y25419375I0J575000D01*
G01*
X40401875Y25419375D01*
X40401875Y26144375D01*
G03*
X40401875Y23544375I0J-1300000D01*
G01*
G37*
D10*
X42001875Y24844375D02*
G02*
X38801875Y24844375I-1600000J0D01*
G01*
G02*
X42001875Y24844375I1600000J0D01*
G01*
D14*
G04 #@! TO.C,J1*
X51627500Y47353125D02*
X54417500Y47353125D01*
X54417500Y42023125D01*
X51627500Y42023125D01*
X51627500Y47353125D01*
D10*
G04 #@! TO.C,T1*
X19345625Y12921250D02*
X19345625Y17241250D01*
X20875625Y17681250D02*
X19345625Y17241250D01*
X20875625Y12481250D02*
X19345625Y12921250D01*
X20875625Y17681250D02*
G02*
X20875625Y12481250I-458450J-2600000D01*
G01*
D11*
G04 #@! TO.C,R4*
X38560375Y45577125D02*
X38814375Y45577125D01*
X41227375Y45450125D02*
X41354375Y45577125D01*
X41608375Y45577125D02*
X41354375Y45577125D01*
X38941375Y45450125D02*
X38814375Y45577125D01*
X41608375Y43799125D02*
X41354375Y43799125D01*
X38941375Y43926125D02*
X38814375Y43799125D01*
D12*
X42116375Y44942125D02*
X41862375Y44942125D01*
X41862375Y44434125D01*
X42116375Y44434125D01*
X42116375Y44942125D01*
D13*
G36*
X42116375Y44942125D02*
X41862375Y44942125D01*
X41862375Y44434125D01*
X42116375Y44434125D01*
X42116375Y44942125D01*
G37*
D11*
X38560375Y43799125D02*
X38814375Y43799125D01*
X38560375Y45577125D02*
X38306375Y45323125D01*
D12*
X38306375Y44942125D02*
X38052375Y44942125D01*
X38052375Y44434125D01*
X38306375Y44434125D01*
X38306375Y44942125D01*
D13*
G36*
X38306375Y44942125D02*
X38052375Y44942125D01*
X38052375Y44434125D01*
X38306375Y44434125D01*
X38306375Y44942125D01*
G37*
D11*
X38941375Y43926125D02*
X41227375Y43926125D01*
X41862375Y45323125D02*
X41608375Y45577125D01*
X38941375Y45450125D02*
X41227375Y45450125D01*
X38560375Y43799125D02*
X38306375Y44053125D01*
X41862375Y44053125D02*
X41608375Y43799125D01*
X41227375Y43926125D02*
X41354375Y43799125D01*
D12*
G04 #@! TO.C,C4*
X59848750Y22353750D02*
X59848750Y23078750D01*
X59348750Y23078750D01*
G02*
X59348750Y24228750I0J575000D01*
G01*
X59848750Y24228750D01*
X59848750Y24953750D01*
G03*
X59848750Y22353750I0J-1300000D01*
G01*
D13*
G36*
X59848750Y22353750D02*
X59848750Y23078750D01*
X59348750Y23078750D01*
G02*
X59348750Y24228750I0J575000D01*
G01*
X59848750Y24228750D01*
X59848750Y24953750D01*
G03*
X59848750Y22353750I0J-1300000D01*
G01*
G37*
D10*
X61448750Y23653750D02*
G02*
X58248750Y23653750I-1600000J0D01*
G01*
G02*
X61448750Y23653750I1600000J0D01*
G01*
G04 #@! TO.C,BT1*
X17763750Y20488750D02*
X17763750Y25988750D01*
X17763750Y20488750D02*
X11763750Y20488750D01*
X11763750Y20488750D02*
X11763750Y25988750D01*
X26263750Y36988750D02*
G02*
X3263750Y36988750I-11500000J0D01*
G01*
G02*
X26263750Y36988750I11500000J0D01*
G01*
D11*
G04 #@! TO.C,R7*
X60388500Y16605250D02*
X60642500Y16605250D01*
X63055500Y16478250D02*
X63182500Y16605250D01*
X63436500Y16605250D02*
X63182500Y16605250D01*
X60769500Y16478250D02*
X60642500Y16605250D01*
X63436500Y14827250D02*
X63182500Y14827250D01*
X60769500Y14954250D02*
X60642500Y14827250D01*
D12*
X63944500Y15970250D02*
X63690500Y15970250D01*
X63690500Y15462250D01*
X63944500Y15462250D01*
X63944500Y15970250D01*
D13*
G36*
X63944500Y15970250D02*
X63690500Y15970250D01*
X63690500Y15462250D01*
X63944500Y15462250D01*
X63944500Y15970250D01*
G37*
D11*
X60388500Y14827250D02*
X60642500Y14827250D01*
X60388500Y16605250D02*
X60134500Y16351250D01*
D12*
X60134500Y15970250D02*
X59880500Y15970250D01*
X59880500Y15462250D01*
X60134500Y15462250D01*
X60134500Y15970250D01*
D13*
G36*
X60134500Y15970250D02*
X59880500Y15970250D01*
X59880500Y15462250D01*
X60134500Y15462250D01*
X60134500Y15970250D01*
G37*
D11*
X60769500Y14954250D02*
X63055500Y14954250D01*
X63690500Y16351250D02*
X63436500Y16605250D01*
X60769500Y16478250D02*
X63055500Y16478250D01*
X60388500Y14827250D02*
X60134500Y15081250D01*
X63690500Y15081250D02*
X63436500Y14827250D01*
X63055500Y14954250D02*
X63182500Y14827250D01*
G04 #@! TO.C,R2*
X27955875Y17557750D02*
X27955875Y17303750D01*
X27828875Y14890750D02*
X27955875Y14763750D01*
X27955875Y14509750D02*
X27955875Y14763750D01*
X27828875Y17176750D02*
X27955875Y17303750D01*
X26177875Y14509750D02*
X26177875Y14763750D01*
X26304875Y17176750D02*
X26177875Y17303750D01*
D12*
X27320875Y14001750D02*
X27320875Y14255750D01*
X26812875Y14255750D01*
X26812875Y14001750D01*
X27320875Y14001750D01*
D13*
G36*
X27320875Y14001750D02*
X27320875Y14255750D01*
X26812875Y14255750D01*
X26812875Y14001750D01*
X27320875Y14001750D01*
G37*
D11*
X26177875Y17557750D02*
X26177875Y17303750D01*
X27955875Y17557750D02*
X27701875Y17811750D01*
D12*
X27320875Y17811750D02*
X27320875Y18065750D01*
X26812875Y18065750D01*
X26812875Y17811750D01*
X27320875Y17811750D01*
D13*
G36*
X27320875Y17811750D02*
X27320875Y18065750D01*
X26812875Y18065750D01*
X26812875Y17811750D01*
X27320875Y17811750D01*
G37*
D11*
X26304875Y17176750D02*
X26304875Y14890750D01*
X27701875Y14255750D02*
X27955875Y14509750D01*
X27828875Y17176750D02*
X27828875Y14890750D01*
X26177875Y17557750D02*
X26431875Y17811750D01*
X26431875Y14255750D02*
X26177875Y14509750D01*
X26304875Y14890750D02*
X26177875Y14763750D01*
D10*
G04 #@! TO.C,R1*
X14446250Y12420625D02*
X13969583Y12087292D01*
X14446250Y11849514D02*
X13446250Y11849514D01*
X13446250Y12230625D01*
X13494028Y12326181D01*
X13541806Y12372847D01*
X13636250Y12420625D01*
X13779583Y12420625D01*
X13875139Y12372847D01*
X13922917Y12326181D01*
X13969583Y12230625D01*
X13969583Y11849514D01*
X14446250Y13391736D02*
X14446250Y12820625D01*
X14446250Y13106181D02*
X13446250Y13106181D01*
X13589583Y13010625D01*
X13684028Y12916181D01*
X13731806Y12820625D01*
G04 #@! TO.C,R5*
X31876875Y40122500D02*
X31400208Y39789167D01*
X31876875Y39551389D02*
X30876875Y39551389D01*
X30876875Y39932500D01*
X30924653Y40028056D01*
X30972431Y40074722D01*
X31066875Y40122500D01*
X31210208Y40122500D01*
X31305764Y40074722D01*
X31353542Y40028056D01*
X31400208Y39932500D01*
X31400208Y39551389D01*
X30876875Y41045833D02*
X30876875Y40570278D01*
X31353542Y40522500D01*
X31305764Y40570278D01*
X31257986Y40665833D01*
X31257986Y40903611D01*
X31305764Y40999167D01*
X31353542Y41045833D01*
X31447986Y41093611D01*
X31686875Y41093611D01*
X31781319Y41045833D01*
X31829097Y40999167D01*
X31876875Y40903611D01*
X31876875Y40665833D01*
X31829097Y40570278D01*
X31781319Y40522500D01*
G04 #@! TO.C,R8*
X61712500Y9080625D02*
X61379167Y9557292D01*
X61141389Y9080625D02*
X61141389Y10080625D01*
X61522500Y10080625D01*
X61618056Y10032847D01*
X61664722Y9985069D01*
X61712500Y9890625D01*
X61712500Y9747292D01*
X61664722Y9651736D01*
X61618056Y9603958D01*
X61522500Y9557292D01*
X61141389Y9557292D01*
X62302500Y9651736D02*
X62208056Y9699514D01*
X62160278Y9747292D01*
X62112500Y9842847D01*
X62112500Y9890625D01*
X62160278Y9985069D01*
X62208056Y10032847D01*
X62302500Y10080625D01*
X62493611Y10080625D01*
X62589167Y10032847D01*
X62635833Y9985069D01*
X62683611Y9890625D01*
X62683611Y9842847D01*
X62635833Y9747292D01*
X62589167Y9699514D01*
X62493611Y9651736D01*
X62302500Y9651736D01*
X62208056Y9603958D01*
X62160278Y9557292D01*
X62112500Y9461736D01*
X62112500Y9270625D01*
X62160278Y9176181D01*
X62208056Y9128403D01*
X62302500Y9080625D01*
X62493611Y9080625D01*
X62589167Y9128403D01*
X62635833Y9176181D01*
X62683611Y9270625D01*
X62683611Y9461736D01*
X62635833Y9557292D01*
X62589167Y9603958D01*
X62493611Y9651736D01*
G04 #@! TO.C,R3*
X45243750Y13984236D02*
X44767083Y13650903D01*
X45243750Y13413125D02*
X44243750Y13413125D01*
X44243750Y13794236D01*
X44291528Y13889792D01*
X44339306Y13936458D01*
X44433750Y13984236D01*
X44577083Y13984236D01*
X44672639Y13936458D01*
X44720417Y13889792D01*
X44767083Y13794236D01*
X44767083Y13413125D01*
X44243750Y14384236D02*
X44243750Y15003125D01*
X44624861Y14669792D01*
X44624861Y14813125D01*
X44672639Y14907569D01*
X44720417Y14955347D01*
X44814861Y15003125D01*
X45053750Y15003125D01*
X45148194Y14955347D01*
X45195972Y14907569D01*
X45243750Y14813125D01*
X45243750Y14527569D01*
X45195972Y14432014D01*
X45148194Y14384236D01*
G04 #@! TO.C,R9*
X54689375Y15357500D02*
X54212708Y15024167D01*
X54689375Y14786389D02*
X53689375Y14786389D01*
X53689375Y15167500D01*
X53737153Y15263056D01*
X53784931Y15309722D01*
X53879375Y15357500D01*
X54022708Y15357500D01*
X54118264Y15309722D01*
X54166042Y15263056D01*
X54212708Y15167500D01*
X54212708Y14786389D01*
X54689375Y15853056D02*
X54689375Y16043056D01*
X54641597Y16138611D01*
X54593819Y16186389D01*
X54451597Y16280833D01*
X54260486Y16328611D01*
X53879375Y16328611D01*
X53784931Y16280833D01*
X53737153Y16234167D01*
X53689375Y16138611D01*
X53689375Y15947500D01*
X53737153Y15853056D01*
X53784931Y15805278D01*
X53879375Y15757500D01*
X54118264Y15757500D01*
X54212708Y15805278D01*
X54260486Y15853056D01*
X54308264Y15947500D01*
X54308264Y16138611D01*
X54260486Y16234167D01*
X54212708Y16280833D01*
X54118264Y16328611D01*
G04 #@! TO.C,R10*
X54559445Y26781250D02*
X54226112Y27257917D01*
X53988334Y26781250D02*
X53988334Y27781250D01*
X54369445Y27781250D01*
X54465001Y27733472D01*
X54511667Y27685694D01*
X54559445Y27591250D01*
X54559445Y27447917D01*
X54511667Y27352361D01*
X54465001Y27304583D01*
X54369445Y27257917D01*
X53988334Y27257917D01*
X55530556Y26781250D02*
X54959445Y26781250D01*
X55245001Y26781250D02*
X55245001Y27781250D01*
X55149445Y27637917D01*
X55055001Y27543472D01*
X54959445Y27495694D01*
X56168334Y27781250D02*
X56263889Y27781250D01*
X56359445Y27733472D01*
X56407223Y27685694D01*
X56453889Y27591250D01*
X56501667Y27400139D01*
X56501667Y27162361D01*
X56453889Y26971250D01*
X56407223Y26876806D01*
X56359445Y26829028D01*
X56263889Y26781250D01*
X56168334Y26781250D01*
X56073889Y26829028D01*
X56026112Y26876806D01*
X55978334Y26971250D01*
X55930556Y27162361D01*
X55930556Y27400139D01*
X55978334Y27591250D01*
X56026112Y27685694D01*
X56073889Y27733472D01*
X56168334Y27781250D01*
G04 #@! TO.C,J2*
X7380486Y18938750D02*
X7380486Y18224306D01*
X7332708Y18082083D01*
X7237153Y17986528D01*
X7094931Y17938750D01*
X6999375Y17938750D01*
X7828264Y18843194D02*
X7876042Y18890972D01*
X7970486Y18938750D01*
X8209375Y18938750D01*
X8303819Y18890972D01*
X8351597Y18843194D01*
X8399375Y18748750D01*
X8399375Y18653194D01*
X8351597Y18509861D01*
X7780486Y17938750D01*
X8399375Y17938750D01*
G04 #@! TO.C,U1*
X31829000Y35662014D02*
X32639000Y35662014D01*
X32733444Y35709792D01*
X32781222Y35757570D01*
X32829000Y35852014D01*
X32829000Y36043125D01*
X32781222Y36138681D01*
X32733444Y36185347D01*
X32639000Y36233125D01*
X31829000Y36233125D01*
X32829000Y37204236D02*
X32829000Y36633125D01*
X32829000Y36918681D02*
X31829000Y36918681D01*
X31972333Y36823125D01*
X32066778Y36728681D01*
X32114556Y36633125D01*
G04 #@! TO.C,R6*
X33375625Y26193750D02*
X33042292Y26670417D01*
X32804514Y26193750D02*
X32804514Y27193750D01*
X33185625Y27193750D01*
X33281181Y27145972D01*
X33327847Y27098194D01*
X33375625Y27003750D01*
X33375625Y26860417D01*
X33327847Y26764861D01*
X33281181Y26717083D01*
X33185625Y26670417D01*
X32804514Y26670417D01*
X34252292Y27193750D02*
X34061181Y27193750D01*
X33965625Y27145972D01*
X33918958Y27098194D01*
X33823403Y26955972D01*
X33775625Y26764861D01*
X33775625Y26383750D01*
X33823403Y26289306D01*
X33871181Y26241528D01*
X33965625Y26193750D01*
X34156736Y26193750D01*
X34252292Y26241528D01*
X34298958Y26289306D01*
X34346736Y26383750D01*
X34346736Y26622639D01*
X34298958Y26717083D01*
X34252292Y26764861D01*
X34156736Y26812639D01*
X33965625Y26812639D01*
X33871181Y26764861D01*
X33823403Y26717083D01*
X33775625Y26622639D01*
G04 #@! TO.C,C3*
X40122500Y21878056D02*
X40074722Y21830278D01*
X39932500Y21782500D01*
X39836944Y21782500D01*
X39693611Y21830278D01*
X39599167Y21925833D01*
X39551389Y22020278D01*
X39503611Y22211389D01*
X39503611Y22353611D01*
X39551389Y22544722D01*
X39599167Y22639167D01*
X39693611Y22734722D01*
X39836944Y22782500D01*
X39932500Y22782500D01*
X40074722Y22734722D01*
X40122500Y22686944D01*
X40522500Y22782500D02*
X41141389Y22782500D01*
X40808056Y22401389D01*
X40951389Y22401389D01*
X41045833Y22353611D01*
X41093611Y22305833D01*
X41141389Y22211389D01*
X41141389Y21972500D01*
X41093611Y21878056D01*
X41045833Y21830278D01*
X40951389Y21782500D01*
X40665833Y21782500D01*
X40570278Y21830278D01*
X40522500Y21878056D01*
G04 #@! TO.C,J1*
X52727500Y49498125D02*
X52727500Y48783681D01*
X52679722Y48641458D01*
X52584167Y48545903D01*
X52441945Y48498125D01*
X52346389Y48498125D01*
X53698611Y48498125D02*
X53127500Y48498125D01*
X53413056Y48498125D02*
X53413056Y49498125D01*
X53317500Y49354792D01*
X53223056Y49260347D01*
X53127500Y49212569D01*
G04 #@! TO.C,R4*
X39860486Y42418125D02*
X39527153Y42894792D01*
X39289375Y42418125D02*
X39289375Y43418125D01*
X39670486Y43418125D01*
X39766042Y43370347D01*
X39812708Y43322569D01*
X39860486Y43228125D01*
X39860486Y43084792D01*
X39812708Y42989236D01*
X39766042Y42941458D01*
X39670486Y42894792D01*
X39289375Y42894792D01*
X40737153Y43084792D02*
X40737153Y42418125D01*
X40498264Y43465903D02*
X40260486Y42751458D01*
X40879375Y42751458D01*
G04 #@! TO.C,C4*
X59648750Y20449306D02*
X59600972Y20401528D01*
X59458750Y20353750D01*
X59363194Y20353750D01*
X59219861Y20401528D01*
X59125417Y20497083D01*
X59077639Y20591528D01*
X59029861Y20782639D01*
X59029861Y20924861D01*
X59077639Y21115972D01*
X59125417Y21210417D01*
X59219861Y21305972D01*
X59363194Y21353750D01*
X59458750Y21353750D01*
X59600972Y21305972D01*
X59648750Y21258194D01*
X60525417Y21020417D02*
X60525417Y20353750D01*
X60286528Y21401528D02*
X60048750Y20687083D01*
X60667639Y20687083D01*
G04 #@! TO.C,R7*
X61664722Y13446250D02*
X61331389Y13922917D01*
X61093611Y13446250D02*
X61093611Y14446250D01*
X61474722Y14446250D01*
X61570278Y14398472D01*
X61616944Y14350694D01*
X61664722Y14256250D01*
X61664722Y14112917D01*
X61616944Y14017361D01*
X61570278Y13969583D01*
X61474722Y13922917D01*
X61093611Y13922917D01*
X62064722Y14446250D02*
X62731389Y14446250D01*
X62302500Y13446250D01*
G04 #@! TO.C,R2*
X25796875Y15809861D02*
X25320208Y15476528D01*
X25796875Y15238750D02*
X24796875Y15238750D01*
X24796875Y15619861D01*
X24844653Y15715417D01*
X24892431Y15762083D01*
X24986875Y15809861D01*
X25130208Y15809861D01*
X25225764Y15762083D01*
X25273542Y15715417D01*
X25320208Y15619861D01*
X25320208Y15238750D01*
X24892431Y16257639D02*
X24844653Y16305417D01*
X24796875Y16399861D01*
X24796875Y16638750D01*
X24844653Y16733194D01*
X24892431Y16780972D01*
X24986875Y16828750D01*
X25082431Y16828750D01*
X25225764Y16780972D01*
X25796875Y16209861D01*
X25796875Y16828750D01*
%LPC*%
D15*
G04 #@! TO.C,C1*
X34901250Y29210000D03*
X35901250Y29210000D03*
D16*
G04 #@! TO.C,R1*
X15716250Y15160625D03*
X15716250Y10080625D03*
G04 #@! TO.C,R5*
X29606875Y37782500D03*
X29606875Y42862500D03*
D17*
G04 #@! TO.C,?2*
X34686875Y9842500D03*
X35956875Y9842500D03*
X39766875Y9842500D03*
X38496875Y9842500D03*
D16*
G04 #@! TO.C,R8*
X59372500Y11350625D03*
X64452500Y11350625D03*
G04 #@! TO.C,R3*
X46513750Y16748125D03*
X46513750Y11668125D03*
D18*
G04 #@! TO.C,?1*
X55641875Y36433125D03*
X60721875Y36433125D03*
X58181875Y38973125D03*
D16*
G04 #@! TO.C,R9*
X55959375Y18018125D03*
X55959375Y12938125D03*
G04 #@! TO.C,R10*
X52705000Y29051250D03*
X57785000Y29051250D03*
D19*
G04 #@! TO.C,J2*
X7699375Y10318750D03*
D20*
X7699375Y15398750D03*
D19*
X7699375Y12858750D03*
D15*
G04 #@! TO.C,C2*
X54395625Y21986875D03*
X53395625Y21986875D03*
D21*
G04 #@! TO.C,U1*
X45085000Y40243125D03*
X37465000Y32623125D03*
X42545000Y40243125D03*
X37465000Y40243125D03*
X47625000Y32623125D03*
X40005000Y40243125D03*
X50165000Y32623125D03*
X47625000Y40243125D03*
X34925000Y40243125D03*
D22*
X34925000Y32623125D03*
D21*
X45085000Y32623125D03*
X40005000Y32623125D03*
X42545000Y32623125D03*
X50165000Y40243125D03*
D23*
G04 #@! TO.C,LED1*
X61285625Y28971875D03*
X64285625Y28971875D03*
D16*
G04 #@! TO.C,R6*
X36115625Y24923750D03*
X31035625Y24923750D03*
D24*
G04 #@! TO.C,C3*
X40901875Y24844375D03*
D25*
X39901875Y24844375D03*
D19*
G04 #@! TO.C,J1*
X53022500Y43418125D03*
D20*
X53022500Y45958125D03*
D26*
G04 #@! TO.C,T1*
X20875625Y15081250D03*
X20875625Y14081250D03*
X20875625Y16081250D03*
D16*
G04 #@! TO.C,R4*
X37544375Y44688125D03*
X42624375Y44688125D03*
D24*
G04 #@! TO.C,C4*
X60348750Y23653750D03*
D25*
X59348750Y23653750D03*
D27*
G04 #@! TO.C,BT1*
X14763750Y22788750D03*
X14763750Y42788750D03*
D16*
G04 #@! TO.C,R7*
X59372500Y15716250D03*
X64452500Y15716250D03*
G04 #@! TO.C,R2*
X27066875Y18573750D03*
X27066875Y13493750D03*
G04 --- BOARD END --- *
G04 #@! TF.MD5,cfe258c426b2b18d1a5dff71f71c327d*
M02*
