G04 --- HEADER BEGIN --- *
G04 #@! TF.GenerationSoftware,LibrePCB,LibrePCB,0.1.6*
G04 #@! TF.CreationDate,2022-07-20T10:00:17*
G04 #@! TF.ProjectId,Sensor de pulso (Sensor_Pulso),780e052b-a1ef-4dc1-bbf9-e3d6d5305104,v1*
G04 #@! TF.Part,Single*
G04 #@! TF.SameCoordinates*
G04 #@! TF.FileFunction,Soldermask,Top*
G04 #@! TF.FilePolarity,Negative*
%FSLAX66Y66*%
%MOMM*%
G01*
G75*
G04 --- HEADER END --- *
G04 --- APERTURE LIST BEGIN --- *
%ADD10C,0.9*%
%AMROTATEDOCTAGON11*4,1,8,0.9128,0.378094,0.378094,0.9128,-0.378094,0.9128,-0.9128,0.378094,-0.9128,-0.378094,-0.378094,-0.9128,0.378094,-0.9128,0.9128,-0.378094,0.9128,0.378094,0.0*%
%ADD11ROTATEDOCTAGON11*%
%ADD12O,1.2X2.2*%
%ADD13C,2.0*%
%ADD14O,2.39X1.787*%
%ADD15R,2.39X1.787*%
%ADD16O,1.47X2.74*%
%ADD17R,1.47X2.74*%
%ADD18C,1.7*%
%ADD19R,0.95X0.95*%
%ADD20C,0.95*%
%ADD21O,1.7X1.0*%
%ADD22C,2.2*%
G04 --- APERTURE LIST END --- *
G04 --- BOARD BEGIN --- *
D10*
G04 #@! TO.C,C1*
X34901250Y29210000D03*
X35901250Y29210000D03*
D11*
G04 #@! TO.C,R1*
X15716250Y15160625D03*
X15716250Y10080625D03*
G04 #@! TO.C,R5*
X29606875Y37782500D03*
X29606875Y42862500D03*
D12*
G04 #@! TO.C,?2*
X34686875Y9842500D03*
X35956875Y9842500D03*
X39766875Y9842500D03*
X38496875Y9842500D03*
D11*
G04 #@! TO.C,R8*
X59372500Y11350625D03*
X64452500Y11350625D03*
G04 #@! TO.C,R3*
X46513750Y16748125D03*
X46513750Y11668125D03*
D13*
G04 #@! TO.C,?1*
X55641875Y36433125D03*
X60721875Y36433125D03*
X58181875Y38973125D03*
D11*
G04 #@! TO.C,R9*
X55959375Y18018125D03*
X55959375Y12938125D03*
G04 #@! TO.C,R10*
X52705000Y29051250D03*
X57785000Y29051250D03*
D14*
G04 #@! TO.C,J2*
X7699375Y10318750D03*
D15*
X7699375Y15398750D03*
D14*
X7699375Y12858750D03*
D10*
G04 #@! TO.C,C2*
X54395625Y21986875D03*
X53395625Y21986875D03*
D16*
G04 #@! TO.C,U1*
X45085000Y40243125D03*
X37465000Y32623125D03*
X42545000Y40243125D03*
X37465000Y40243125D03*
X47625000Y32623125D03*
X40005000Y40243125D03*
X50165000Y32623125D03*
X47625000Y40243125D03*
X34925000Y40243125D03*
D17*
X34925000Y32623125D03*
D16*
X45085000Y32623125D03*
X40005000Y32623125D03*
X42545000Y32623125D03*
X50165000Y40243125D03*
D18*
G04 #@! TO.C,LED1*
X61285625Y28971875D03*
X64285625Y28971875D03*
D11*
G04 #@! TO.C,R6*
X36115625Y24923750D03*
X31035625Y24923750D03*
D19*
G04 #@! TO.C,C3*
X40901875Y24844375D03*
D20*
X39901875Y24844375D03*
D14*
G04 #@! TO.C,J1*
X53022500Y43418125D03*
D15*
X53022500Y45958125D03*
D21*
G04 #@! TO.C,T1*
X20875625Y15081250D03*
X20875625Y14081250D03*
X20875625Y16081250D03*
D11*
G04 #@! TO.C,R4*
X37544375Y44688125D03*
X42624375Y44688125D03*
D19*
G04 #@! TO.C,C4*
X60348750Y23653750D03*
D20*
X59348750Y23653750D03*
D22*
G04 #@! TO.C,BT1*
X14763750Y22788750D03*
X14763750Y42788750D03*
D11*
G04 #@! TO.C,R7*
X59372500Y15716250D03*
X64452500Y15716250D03*
G04 #@! TO.C,R2*
X27066875Y18573750D03*
X27066875Y13493750D03*
G04 --- BOARD END --- *
G04 #@! TF.MD5,3d5f1e99f58f8720d1300b23bec77d3c*
M02*
