M48
; #@! TF.GenerationSoftware,LibrePCB,LibrePCB,0.1.6
; #@! TF.CreationDate,2022-07-20T10:00:17
; #@! TF.ProjectId,Sensor de pulso (Sensor_Pulso),780e052b-a1ef-4dc1-bbf9-e3d6d5305104,v1
; #@! TF.Part,Single
; #@! TF.SameCoordinates
; #@! TF.FileFunction,Plated,1,2,PTH
FMAT,2
METRIC,TZ
; #@! TA.AperFunction,ComponentDrill
T1C0.3
; #@! TA.AperFunction,ComponentDrill
T2C0.5
; #@! TA.AperFunction,ComponentDrill
T3C0.8
; #@! TA.AperFunction,ComponentDrill
T4C0.8128
; #@! TA.AperFunction,ComponentDrill
T5C0.9
; #@! TA.AperFunction,ComponentDrill
T6C1.0
%
G90
G05
M71
T1
X53.395625Y21.986875
X54.395625Y21.986875
X35.90125Y29.21
X34.90125Y29.21
T2
X59.34875Y23.65375
X60.34875Y23.65375
X20.875625Y16.08125
X20.875625Y14.08125
X20.875625Y15.08125
X39.901875Y24.844375
X40.901875Y24.844375
T3
X14.76375Y42.78875
X14.76375Y22.78875
X64.285625Y28.971875
X61.285625Y28.971875
X50.165Y40.243125
X42.545Y32.623125
X40.005Y32.623125
X45.085Y32.623125
X34.925Y32.623125
X34.925Y40.243125
X47.625Y40.243125
X50.165Y32.623125
X40.005Y40.243125
X47.625Y32.623125
X37.465Y40.243125
X42.545Y40.243125
X37.465Y32.623125
X45.085Y40.243125
X58.181875Y38.973125
X60.721875Y36.433125
X55.641875Y36.433125
X38.496875Y9.8425
X39.766875Y9.8425
X35.956875Y9.8425
X34.686875Y9.8425
T4
X27.066875Y13.49375
X27.066875Y18.57375
X64.4525Y15.71625
X59.3725Y15.71625
X42.624375Y44.688125
X37.544375Y44.688125
X31.035625Y24.92375
X36.115625Y24.92375
X57.785Y29.05125
X52.705Y29.05125
X55.959375Y12.938125
X55.959375Y18.018125
X46.51375Y11.668125
X46.51375Y16.748125
X64.4525Y11.350625
X59.3725Y11.350625
X29.606875Y42.8625
X29.606875Y37.7825
X15.71625Y10.080625
X15.71625Y15.160625
T5
X7.699375Y12.85875
X7.699375Y15.39875
X7.699375Y10.31875
T6
X53.0225Y45.958125
X53.0225Y43.418125
T0
M30
